<?xml version="1.0" encoding="UTF-8"?>
<!DOCTYPE svg PUBLIC "-//W3C//DTD SVG 1.1//EN" "http://www.w3.org/Graphics/SVG/1.1/DTD/svg11.dtd">
<svg xmlns="http://www.w3.org/2000/svg" version="1.1" width="945px" height="340px" style="shape-rendering:geometricPrecision; text-rendering:geometricPrecision; image-rendering:optimizeQuality; fill-rule:evenodd; clip-rule:evenodd" xmlns:xlink="http://www.w3.org/1999/xlink">
<g><path style="opacity:0.925" fill="#fefffe" d="M 238.5,24.5 C 253.89,22.0561 259.723,28.3894 256,43.5C 254.092,49.5403 252.425,55.5403 251,61.5C 282.896,52.6006 315.396,47.7673 348.5,47C 326.041,51.0253 303.707,55.6919 281.5,61C 269.05,64.0393 256.884,67.8726 245,72.5C 238.487,88.5281 231.153,104.195 223,119.5C 202.439,153.432 184.439,188.765 169,225.5C 167.516,229.754 166.849,234.087 167,238.5C 168.868,239.672 170.702,239.505 172.5,238C 184.672,224.483 195.506,209.983 205,194.5C 214.509,176.805 225.509,160.138 238,144.5C 249.284,131.444 263.118,122.278 279.5,117C 302.497,113.986 309.663,123.152 301,144.5C 297.286,150.881 292.286,155.881 286,159.5C 284.893,159.415 283.893,159.081 283,158.5C 284.254,151.683 282.754,145.516 278.5,140C 274.422,138.34 270.422,138.673 266.5,141C 248.509,152.316 235.676,167.816 228,187.5C 224.498,197.466 224.165,207.466 227,217.5C 228.956,220.984 231.956,222.984 236,223.5C 247.827,221.892 258.66,217.725 268.5,211C 277.01,205.245 285.343,199.245 293.5,193C 312.922,182.659 318.422,187.492 310,207.5C 308.981,208.687 307.814,209.687 306.5,210.5C 304.439,206.313 301.439,205.48 297.5,208C 281.49,220.841 263.824,230.841 244.5,238C 233.789,241.084 223.123,241.084 212.5,238C 204.154,232.304 200.988,224.471 203,214.5C 194.835,227.988 185.335,240.488 174.5,252C 156.833,263.834 147.166,259.001 145.5,237.5C 146.485,235.902 146.651,234.235 146,232.5C 136.651,245.857 125.818,258.023 113.5,269C 104.9,276.429 100.567,274.429 100.5,263C 101.412,255.036 102.579,247.203 104,239.5C 93.918,252.92 83.0846,265.753 71.5,278C 68.772,280.392 65.772,282.392 62.5,284C 56.1282,285.312 51.9615,282.812 50,276.5C 48.5447,257.647 51.878,239.647 60,222.5C 67.0161,207.802 74.0161,193.136 81,178.5C 83.4395,175.033 82.9395,172.2 79.5,170C 85.6832,166.422 91.1832,167.255 96,172.5C 96.734,177.027 96.0673,181.361 94,185.5C 81.6009,206.536 72.4343,228.87 66.5,252.5C 66.4363,254.389 66.9363,256.056 68,257.5C 74.6754,251.824 80.6754,245.491 86,238.5C 103.511,214.647 119.845,189.981 135,164.5C 135.273,162.899 135.773,161.399 136.5,160C 132.283,155.502 133.449,153.669 140,154.5C 148.592,154.635 151.592,158.968 149,167.5C 143.667,180.167 138.333,192.833 133,205.5C 127.79,217.006 124.79,229.006 124,241.5C 136.669,229.153 147.669,215.486 157,200.5C 178.007,161.821 197.34,122.488 215,82.5C 198.565,89.1341 182.732,96.9674 167.5,106C 161.043,110.452 156.043,116.119 152.5,123C 153.167,124.333 154.167,125.333 155.5,126C 140.429,126.955 135.262,120.455 140,106.5C 150.071,97.2054 161.571,90.0387 174.5,85C 190.059,79.2025 205.726,73.7025 221.5,68.5C 225.269,60.6925 227.936,52.5258 229.5,44C 229.646,41.9658 228.98,40.2991 227.5,39C 225.005,38.8425 222.672,38.6759 220.5,38.5C 225.481,32.3638 231.481,27.6971 238.5,24.5 Z"/></g>
<g><path style="opacity:0.539" fill="#fefffe" d="M 381.5,24.5 C 385.884,24.1744 390.217,24.5078 394.5,25.5C 393.975,26.1924 393.308,26.6924 392.5,27C 388.848,27.4986 385.182,27.6653 381.5,27.5C 381.5,26.5 381.5,25.5 381.5,24.5 Z"/></g>
<g><path style="opacity:0.878" fill="#fefffe" d="M 699.5,24.5 C 709.155,23.059 716.488,26.3923 721.5,34.5C 719.393,36.7267 717.06,38.7267 714.5,40.5C 712.31,38.476 709.977,36.6427 707.5,35C 702.01,33.4117 698.676,35.4117 697.5,41C 697.903,42.4728 698.57,43.8061 699.5,45C 705.579,47.1372 711.579,49.4706 717.5,52C 724.376,59.1101 725.209,66.9434 720,75.5C 711.607,81.9933 702.441,83.1599 692.5,79C 688.974,76.9739 686.307,74.1405 684.5,70.5C 686.722,68.4685 689.222,66.8018 692,65.5C 696.266,70.8764 701.766,72.7097 708.5,71C 712.554,68.2086 713.22,64.8753 710.5,61C 704.085,58.5284 697.752,55.8617 691.5,53C 684.685,44.397 685.019,36.0636 692.5,28C 694.925,26.7874 697.259,25.6207 699.5,24.5 Z"/></g>
<g><path style="opacity:0.892" fill="#fefffe" d="M 426.5,25.5 C 430.167,25.5 433.833,25.5 437.5,25.5C 437.333,38.1711 437.5,50.8377 438,63.5C 440.676,71.5897 445.843,73.5897 453.5,69.5C 454.584,68.3349 455.417,67.0016 456,65.5C 456.5,52.1708 456.667,38.8375 456.5,25.5C 460.167,25.5 463.833,25.5 467.5,25.5C 467.913,40.2168 467.413,54.8835 466,69.5C 462.63,78.0261 456.297,82.0261 447,81.5C 438.863,81.9072 432.863,78.5739 429,71.5C 427.641,56.2297 426.808,40.8964 426.5,25.5 Z"/></g>
<g><path style="opacity:0.929" fill="#fefffe" d="M 477.5,25.5 C 480.518,25.3354 483.518,25.502 486.5,26C 493.458,36.749 500.292,47.5823 507,58.5C 507.5,47.505 507.667,36.505 507.5,25.5C 510.833,25.5 514.167,25.5 517.5,25.5C 517.5,43.8333 517.5,62.1667 517.5,80.5C 514.223,80.7839 511.057,80.4505 508,79.5C 501.082,68.6663 494.415,57.6663 488,46.5C 487.5,57.8284 487.333,69.1618 487.5,80.5C 484.167,80.5 480.833,80.5 477.5,80.5C 477.5,62.1667 477.5,43.8333 477.5,25.5 Z"/></g>
<g><path style="opacity:0.843" fill="#fefffe" d="M 527.5,25.5 C 531.5,25.5 535.5,25.5 539.5,25.5C 539.5,43.8333 539.5,62.1667 539.5,80.5C 535.5,80.5 531.5,80.5 527.5,80.5C 527.5,62.1667 527.5,43.8333 527.5,25.5 Z"/></g>
<g><path style="opacity:0.89" fill="#fefffe" d="M 544.5,25.5 C 548.226,25.1774 551.893,25.5108 555.5,26.5C 559.769,38.8072 563.936,51.1405 568,63.5C 571.798,51.1046 575.798,38.7713 580,26.5C 583.744,25.374 587.577,25.2073 591.5,26C 585.364,44.0755 579.031,62.0755 572.5,80C 569.118,80.8236 565.784,80.657 562.5,79.5C 556.291,61.5388 550.291,43.5388 544.5,25.5 Z"/></g>
<g><path style="opacity:0.905" fill="#fefffe" d="M 596.5,25.5 C 608.5,25.5 620.5,25.5 632.5,25.5C 632.5,28.8333 632.5,32.1667 632.5,35.5C 623.833,35.5 615.167,35.5 606.5,35.5C 606.5,39.5 606.5,43.5 606.5,47.5C 614.167,47.5 621.833,47.5 629.5,47.5C 628.793,50.7861 628.46,54.1194 628.5,57.5C 621.167,57.5 613.833,57.5 606.5,57.5C 606.5,61.8333 606.5,66.1667 606.5,70.5C 615.167,70.5 623.833,70.5 632.5,70.5C 632.5,73.8333 632.5,77.1667 632.5,80.5C 620.5,80.5 608.5,80.5 596.5,80.5C 596.5,62.1667 596.5,43.8333 596.5,25.5 Z"/></g>
<g><path style="opacity:0.89" fill="#fefffe" d="M 640.5,25.5 C 648.84,25.3336 657.173,25.5003 665.5,26C 675.07,28.9633 679.237,35.4633 678,45.5C 676.66,50.855 673.827,55.1884 669.5,58.5C 674.379,65.6028 678.712,72.9361 682.5,80.5C 678.486,80.6655 674.486,80.4988 670.5,80C 666.289,73.7471 662.455,67.2471 659,60.5C 656.619,59.565 654.119,59.2317 651.5,59.5C 651.5,66.5 651.5,73.5 651.5,80.5C 647.833,80.5 644.167,80.5 640.5,80.5C 640.5,62.1667 640.5,43.8333 640.5,25.5 Z M 651.5,34.5 C 656.006,34.1482 660.339,34.8148 664.5,36.5C 668.812,41.0881 668.479,45.2548 663.5,49C 659.605,50.2662 655.605,50.7662 651.5,50.5C 651.5,45.1667 651.5,39.8333 651.5,34.5 Z"/></g>
<g><path style="opacity:0.914" fill="#fefffe" d="M 730.5,25.5 C 734.167,25.5 737.833,25.5 741.5,25.5C 741.5,43.8333 741.5,62.1667 741.5,80.5C 737.833,80.5 734.167,80.5 730.5,80.5C 730.5,62.1667 730.5,43.8333 730.5,25.5 Z"/></g>
<g><path style="opacity:0.886" fill="#fefffe" d="M 751.5,25.5 C 759.174,25.3336 766.841,25.5003 774.5,26C 789.004,29.1703 796.004,38.1703 795.5,53C 796.049,66.9178 789.716,75.9178 776.5,80C 768.173,80.4997 759.84,80.6664 751.5,80.5C 751.5,62.1667 751.5,43.8333 751.5,25.5 Z M 762.5,35.5 C 780.014,34.1826 787.18,42.1826 784,59.5C 779.696,68.5574 772.529,72.224 762.5,70.5C 762.5,58.8333 762.5,47.1667 762.5,35.5 Z"/></g>
<g><path style="opacity:0.899" fill="#fefffe" d="M 816.5,25.5 C 820.167,25.5 823.833,25.5 827.5,25.5C 833.959,43.5417 840.626,61.5417 847.5,79.5C 843.5,80.8333 839.5,80.8333 835.5,79.5C 834.362,76.087 833.029,72.7536 831.5,69.5C 824.833,68.1667 818.167,68.1667 811.5,69.5C 810.167,72.8333 808.833,76.1667 807.5,79.5C 803.833,80.8333 800.167,80.8333 796.5,79.5C 803.374,61.5417 810.041,43.5417 816.5,25.5 Z M 821.5,40.5 C 823.908,46.5456 826.241,52.7123 828.5,59C 824.179,59.499 819.846,59.6657 815.5,59.5C 817.102,53.0292 819.102,46.6958 821.5,40.5 Z"/></g>
<g><path style="opacity:0.921" fill="#fefffe" d="M 852.5,25.5 C 859.841,25.3337 867.174,25.5003 874.5,26C 889.163,28.9775 896.163,37.9775 895.5,53C 896.132,67.0173 889.799,76.0173 876.5,80C 868.507,80.4997 860.507,80.6664 852.5,80.5C 852.5,62.1667 852.5,43.8333 852.5,25.5 Z M 862.5,35.5 C 880.644,34.4735 887.81,42.8068 884,60.5C 879.275,68.7763 872.108,72.1096 862.5,70.5C 862.5,58.8333 862.5,47.1667 862.5,35.5 Z"/></g>
<g><path style="opacity:0.534" fill="#fefffe" d="M 391.5,29.5 C 395.278,30.1934 395.278,31.3601 391.5,33C 388.183,33.4983 384.85,33.665 381.5,33.5C 381.5,32.5 381.5,31.5 381.5,30.5C 385.042,30.8128 388.375,30.4794 391.5,29.5 Z"/></g>
<g><path style="opacity:0.578" fill="#fefffe" d="M 381.5,36.5 C 385.857,37.576 390.19,37.576 394.5,36.5C 394.5,37.5 394.5,38.5 394.5,39.5C 390.167,39.5 385.833,39.5 381.5,39.5C 381.5,38.5 381.5,37.5 381.5,36.5 Z"/></g>
<g><path style="opacity:0.512" fill="#fefffe" d="M 381.5,43.5 C 385.833,43.5 390.167,43.5 394.5,43.5C 394.5,44.5 394.5,45.5 394.5,46.5C 390.167,46.5 385.833,46.5 381.5,46.5C 381.5,45.5 381.5,44.5 381.5,43.5 Z"/></g>
<g><path style="opacity:0.551" fill="#fefffe" d="M 381.5,51.5 C 385.833,51.5 390.167,51.5 394.5,51.5C 394.5,52.5 394.5,53.5 394.5,54.5C 391.15,54.665 387.817,54.4983 384.5,54C 382.881,53.7645 381.881,52.9311 381.5,51.5 Z"/></g>
<g><path style="opacity:0.519" fill="#fefffe" d="M 388.5,57.5 C 390.5,57.5 392.5,57.5 394.5,57.5C 394.719,58.675 394.386,59.675 393.5,60.5C 391.241,60.2155 389.574,59.2155 388.5,57.5 Z"/></g>
<g><path style="opacity:0.576" fill="#fefffe" d="M 381.5,60.5 C 392.575,61.6804 395.241,66.847 389.5,76C 387.222,76.9862 384.889,77.8195 382.5,78.5C 381.614,77.675 381.281,76.675 381.5,75.5C 385.715,75.2318 388.715,73.2318 390.5,69.5C 388.992,65.3232 385.992,63.3232 381.5,63.5C 381.5,62.5 381.5,61.5 381.5,60.5 Z"/></g>
<g><path style="opacity:0.538" fill="#fefffe" d="M 381.5,65.5 C 384.712,65.1058 387.046,66.2724 388.5,69C 387.431,71.6498 385.431,73.1498 382.5,73.5C 382.167,73 381.833,72.5 381.5,72C 382.444,70.5232 383.777,69.5232 385.5,69C 384.207,68.51 382.873,68.3433 381.5,68.5C 381.5,67.5 381.5,66.5 381.5,65.5 Z"/></g>
<g><path style="opacity:0.512" fill="#fefffe" d="M 393.5,76.5 C 394.598,77.6009 394.765,78.9343 394,80.5C 390.408,83.5302 386.242,84.8636 381.5,84.5C 381.5,83.5 381.5,82.5 381.5,81.5C 386.487,82.0015 390.487,80.3348 393.5,76.5 Z"/></g>
<g><path style="opacity:0.549" fill="#fefffe" d="M 392.5,84.5 C 394.652,85.0768 394.985,86.2435 393.5,88C 389.637,90.1337 385.637,90.6337 381.5,89.5C 385.293,87.9786 388.96,86.3119 392.5,84.5 Z"/></g>
<g><path style="opacity:0.773" fill="#fefffe" d="M 488.5,90.5 C 491.898,90.1796 495.232,90.513 498.5,91.5C 495.016,95.4849 491.349,99.3182 487.5,103C 485.098,103.814 482.765,103.647 480.5,102.5C 483.177,98.4714 485.844,94.4714 488.5,90.5 Z"/></g>
<g><path style="opacity:0.598" fill="#fefffe" d="M 381.5,94.5 C 385.833,94.5 390.167,94.5 394.5,94.5C 394.5,95.5 394.5,96.5 394.5,97.5C 390.155,96.2741 385.822,96.2741 381.5,97.5C 381.5,96.5 381.5,95.5 381.5,94.5 Z"/></g>
<g><path style="opacity:0.534" fill="#fefffe" d="M 390.5,99.5 C 391.833,99.5 393.167,99.5 394.5,99.5C 394.5,100.5 394.5,101.5 394.5,102.5C 390.14,103.007 385.807,103.673 381.5,104.5C 381.5,103.5 381.5,102.5 381.5,101.5C 384.727,101.324 387.727,100.657 390.5,99.5 Z"/></g>
<g><path style="opacity:0.857" fill="#fefffe" d="M 524.5,105.5 C 534.235,104.203 541.902,107.537 547.5,115.5C 546.109,117.89 544.109,119.557 541.5,120.5C 539.31,118.476 536.977,116.643 534.5,115C 525.953,112.857 520.453,116.024 518,124.5C 515.78,132.411 516.447,140.077 520,147.5C 527.772,155.68 535.272,155.346 542.5,146.5C 544.909,147.701 546.909,149.367 548.5,151.5C 543.656,160.088 536.322,163.588 526.5,162C 515.314,158.799 509.147,151.299 508,139.5C 506.313,127.729 509.48,117.562 517.5,109C 519.925,107.787 522.259,106.621 524.5,105.5 Z"/></g>
<g><path style="opacity:0.853" fill="#fefffe" d="M 639.5,105.5 C 649.463,104.151 657.13,107.651 662.5,116C 660.578,117.876 658.411,119.376 656,120.5C 653.815,118.327 651.315,116.493 648.5,115C 640.842,113.246 635.676,116.079 633,123.5C 629.627,134.095 631.46,143.595 638.5,152C 641.702,153.483 645.036,153.817 648.5,153C 651.919,151.414 654.919,149.248 657.5,146.5C 659.54,148.177 661.54,149.844 663.5,151.5C 654.884,163.406 644.217,165.573 631.5,158C 623.449,148.632 620.615,137.799 623,125.5C 624.739,115.605 630.239,108.939 639.5,105.5 Z"/></g>
<g><path style="opacity:0.558" fill="#fefffe" d="M 389.5,106.5 C 391.167,106.5 392.833,106.5 394.5,106.5C 394.5,107.5 394.5,108.5 394.5,109.5C 390.125,110.274 385.792,110.274 381.5,109.5C 384.092,108.083 386.759,107.083 389.5,106.5 Z"/></g>
<g><path style="opacity:0.871" fill="#fefffe" d="M 425.5,106.5 C 437.833,106.5 450.167,106.5 462.5,106.5C 462.5,109.167 462.5,111.833 462.5,114.5C 457.833,114.5 453.167,114.5 448.5,114.5C 448.5,130.167 448.5,145.833 448.5,161.5C 445.5,161.5 442.5,161.5 439.5,161.5C 439.5,145.833 439.5,130.167 439.5,114.5C 434.833,114.5 430.167,114.5 425.5,114.5C 425.5,111.833 425.5,109.167 425.5,106.5 Z"/></g>
<g><path style="opacity:0.893" fill="#fefffe" d="M 468.5,106.5 C 479.833,106.5 491.167,106.5 502.5,106.5C 502.5,109.167 502.5,111.833 502.5,114.5C 493.833,114.5 485.167,114.5 476.5,114.5C 476.5,119.5 476.5,124.5 476.5,129.5C 484.196,129.169 491.862,129.503 499.5,130.5C 498.626,132.747 498.292,135.08 498.5,137.5C 491.167,137.5 483.833,137.5 476.5,137.5C 476.5,142.5 476.5,147.5 476.5,152.5C 485.167,152.5 493.833,152.5 502.5,152.5C 502.5,155.5 502.5,158.5 502.5,161.5C 491.167,161.5 479.833,161.5 468.5,161.5C 468.5,143.167 468.5,124.833 468.5,106.5 Z"/></g>
<g><path style="opacity:0.921" fill="#fefffe" d="M 556.5,106.5 C 559.247,106.187 561.914,106.52 564.5,107.5C 571.918,119.335 579.085,131.335 586,143.5C 586.5,131.171 586.667,118.838 586.5,106.5C 589.167,106.5 591.833,106.5 594.5,106.5C 594.5,124.833 594.5,143.167 594.5,161.5C 591.315,161.98 588.481,161.314 586,159.5C 579,147.5 572,135.5 565,123.5C 564.5,136.162 564.333,148.829 564.5,161.5C 561.833,161.5 559.167,161.5 556.5,161.5C 556.5,143.167 556.5,124.833 556.5,106.5 Z"/></g>
<g><path style="opacity:0.814" fill="#fefffe" d="M 604.5,106.5 C 607.833,106.5 611.167,106.5 614.5,106.5C 614.5,124.833 614.5,143.167 614.5,161.5C 611.167,161.5 607.833,161.5 604.5,161.5C 604.5,143.167 604.5,124.833 604.5,106.5 Z"/></g>
<g><path style="opacity:0.866" fill="#fefffe" d="M 684.5,106.5 C 687.777,106.216 690.943,106.549 694,107.5C 700.598,125.128 707.098,142.795 713.5,160.5C 710.232,161.487 706.898,161.82 703.5,161.5C 702.771,157.314 701.438,153.314 699.5,149.5C 692.5,148.167 685.5,148.167 678.5,149.5C 676.586,153.323 675.253,157.323 674.5,161.5C 671.5,161.5 668.5,161.5 665.5,161.5C 671.632,143.103 677.966,124.77 684.5,106.5 Z M 688.5,118.5 C 691.138,125.401 693.805,132.401 696.5,139.5C 691.5,140.833 686.5,140.833 681.5,139.5C 684.438,132.686 686.771,125.686 688.5,118.5 Z"/></g>
<g><path style="opacity:0.909" fill="#fefffe" d="M 736.5,106.5 C 769.877,102.036 782.711,116.036 775,148.5C 771.14,155.35 765.307,159.517 757.5,161C 750.508,161.5 743.508,161.666 736.5,161.5C 736.5,143.167 736.5,124.833 736.5,106.5 Z M 744.5,114.5 C 766.495,114.48 773.661,124.814 766,145.5C 760.264,151.776 753.097,154.442 744.5,153.5C 744.5,140.5 744.5,127.5 744.5,114.5 Z"/></g>
<g><path style="opacity:0.861" fill="#fefffe" d="M 785.5,106.5 C 796.833,106.5 808.167,106.5 819.5,106.5C 819.5,109.167 819.5,111.833 819.5,114.5C 811.167,114.5 802.833,114.5 794.5,114.5C 794.5,119.5 794.5,124.5 794.5,129.5C 801.833,129.5 809.167,129.5 816.5,129.5C 816.5,132.167 816.5,134.833 816.5,137.5C 809.167,137.5 801.833,137.5 794.5,137.5C 794.5,142.5 794.5,147.5 794.5,152.5C 803.167,152.5 811.833,152.5 820.5,152.5C 820.492,155.545 820.159,158.545 819.5,161.5C 808.167,161.5 796.833,161.5 785.5,161.5C 785.5,143.167 785.5,124.833 785.5,106.5 Z"/></g>
<g><path style="opacity:0.563" fill="#fefffe" d="M 385.5,113.5 C 388.5,113.5 391.5,113.5 394.5,113.5C 394.5,114.5 394.5,115.5 394.5,116.5C 390.116,116.826 385.783,116.492 381.5,115.5C 382.949,114.828 384.282,114.161 385.5,113.5 Z"/></g>
<g><path style="opacity:0.576" fill="#fefffe" d="M 386.5,120.5 C 389.167,120.5 391.833,120.5 394.5,120.5C 394.5,121.5 394.5,122.5 394.5,123.5C 390.116,123.826 385.783,123.492 381.5,122.5C 383.291,121.83 384.958,121.163 386.5,120.5 Z"/></g>
<g><path style="opacity:0.606" fill="#fefffe" d="M 383.5,126.5 C 387.226,126.177 390.893,126.511 394.5,127.5C 390.496,128.501 386.496,129.501 382.5,130.5C 382.167,130 381.833,129.5 381.5,129C 382.056,127.989 382.722,127.156 383.5,126.5 Z"/></g>
<g><path style="opacity:0.569" fill="#fefffe" d="M 384.5,133.5 C 387.898,133.18 391.232,133.513 394.5,134.5C 394,134.833 393.5,135.167 393,135.5C 389.483,136.127 385.983,136.793 382.5,137.5C 381.614,136.675 381.281,135.675 381.5,134.5C 382.791,134.737 383.791,134.404 384.5,133.5 Z"/></g>
<g><path style="opacity:0.529" fill="#fefffe" d="M 381.5,140.5 C 386.14,141.826 390.474,143.659 394.5,146C 394.167,146.5 393.833,147 393.5,147.5C 389.691,146.564 386.025,145.23 382.5,143.5C 381.614,142.675 381.281,141.675 381.5,140.5 Z"/></g>
<g><path style="opacity:0.518" fill="#fefffe" d="M 381.5,147.5 C 386.086,149.131 390.419,151.131 394.5,153.5C 390.002,154.335 385.835,153.335 382,150.5C 381.517,149.552 381.351,148.552 381.5,147.5 Z"/></g>
<g><path style="opacity:0.553" fill="#fefffe" d="M 390.5,155.5 C 391.833,155.5 393.167,155.5 394.5,155.5C 394.5,156.5 394.5,157.5 394.5,158.5C 392.801,158.34 391.134,158.506 389.5,159C 387,161.5 384.5,164 382,166.5C 381.333,165.167 381.333,163.833 382,162.5C 384.464,159.519 387.297,157.186 390.5,155.5 Z"/></g>
<g><path style="opacity:0.541" fill="#fefffe" d="M 390.5,162.5 C 391.978,162.238 393.311,162.571 394.5,163.5C 390.5,166.833 386.5,170.167 382.5,173.5C 381.417,172.635 381.251,171.635 382,170.5C 384.729,167.601 387.562,164.934 390.5,162.5 Z"/></g>
<g><path style="opacity:0.567" fill="#fefffe" d="M 390.5,169.5 C 391.833,169.5 393.167,169.5 394.5,169.5C 394.5,170.833 394.5,172.167 394.5,173.5C 392.396,173.799 390.396,173.466 388.5,172.5C 389.193,171.482 389.859,170.482 390.5,169.5 Z"/></g>
<g><path style="opacity:0.506" fill="#fefffe" d="M 381.5,176.5 C 385.833,176.5 390.167,176.5 394.5,176.5C 394.5,177.5 394.5,178.5 394.5,179.5C 390.167,179.5 385.833,179.5 381.5,179.5C 381.5,178.5 381.5,177.5 381.5,176.5 Z"/></g>
<g><path style="opacity:0.53" fill="#fefffe" d="M 381.5,181.5 C 385.292,181.726 388.959,182.56 392.5,184C 394.405,184.826 394.739,185.993 393.5,187.5C 389.808,186.436 386.141,185.269 382.5,184C 381.748,183.329 381.414,182.496 381.5,181.5 Z"/></g>
<g><path style="opacity:0.829" fill="#fefffe" d="M 444.5,187.5 C 451.799,186.489 458.466,187.989 464.5,192C 469,195.791 468.5,198.624 463,200.5C 450.508,190.415 441.841,193.082 437,208.5C 434.622,218.834 437.122,227.668 444.5,235C 452.285,238.498 458.785,236.665 464,229.5C 465.925,230.88 467.759,232.38 469.5,234C 463.41,242.865 455.077,245.865 444.5,243C 436.864,240.027 432.031,234.527 430,226.5C 426.217,212.381 429.383,200.215 439.5,190C 441.315,189.243 442.981,188.41 444.5,187.5 Z"/></g>
<g><path style="opacity:0.849" fill="#fefffe" d="M 489.5,187.5 C 504.276,185.632 513.109,191.965 516,206.5C 517.571,216.615 516.238,226.282 512,235.5C 502.496,245.698 492.163,246.698 481,238.5C 472.657,225.42 471.657,211.753 478,197.5C 480.818,192.839 484.651,189.505 489.5,187.5 Z M 491.5,194.5 C 502.136,194.293 507.969,199.627 509,210.5C 510.493,219.697 508.327,227.864 502.5,235C 490.859,239.249 484.026,235.082 482,222.5C 481.039,215.664 481.705,208.997 484,202.5C 486.028,199.308 488.528,196.641 491.5,194.5 Z"/></g>
<g><path style="opacity:0.863" fill="#fefffe" d="M 517.5,187.5 C 529.5,187.5 541.5,187.5 553.5,187.5C 553.5,189.833 553.5,192.167 553.5,194.5C 548.833,194.5 544.167,194.5 539.5,194.5C 539.5,210.833 539.5,227.167 539.5,243.5C 537.167,243.5 534.833,243.5 532.5,243.5C 532.5,227.167 532.5,210.833 532.5,194.5C 527.5,194.5 522.5,194.5 517.5,194.5C 517.5,192.167 517.5,189.833 517.5,187.5 Z"/></g>
<g><path style="opacity:0.848" fill="#fefffe" d="M 570.5,187.5 C 585.776,185.607 594.609,192.274 597,207.5C 598.234,216.455 597.234,225.122 594,233.5C 587.127,243.676 577.96,246.509 566.5,242C 559.152,236.809 555.319,229.643 555,220.5C 553.136,208.424 556.636,198.257 565.5,190C 567.315,189.243 568.981,188.41 570.5,187.5 Z M 571.5,194.5 C 579.54,192.935 585.04,195.935 588,203.5C 592.254,214.903 590.754,225.403 583.5,235C 572.4,239.194 565.566,235.361 563,223.5C 561.474,214.667 562.807,206.334 567,198.5C 568.667,197.267 570.167,195.933 571.5,194.5 Z"/></g>
<g><path style="opacity:0.846" fill="#fefffe" d="M 606.5,187.5 C 614.561,187.179 622.561,187.679 630.5,189C 635.876,191.04 639.043,194.873 640,200.5C 642.053,211.241 637.886,218.074 627.5,221C 622.845,221.499 618.179,221.666 613.5,221.5C 613.5,228.833 613.5,236.167 613.5,243.5C 611.167,243.5 608.833,243.5 606.5,243.5C 606.5,224.833 606.5,206.167 606.5,187.5 Z M 613.5,194.5 C 618.599,194.175 623.599,194.675 628.5,196C 635.231,202.676 634.564,208.676 626.5,214C 622.179,214.499 617.846,214.666 613.5,214.5C 613.5,207.833 613.5,201.167 613.5,194.5 Z"/></g>
<g><path style="opacity:0.828" fill="#fefffe" d="M 657.5,187.5 C 661.471,186.758 664.304,188.091 666,191.5C 672.068,208.538 678.235,225.538 684.5,242.5C 681.833,243.833 679.167,243.833 676.5,242.5C 675.03,238.088 673.363,233.755 671.5,229.5C 664.197,228.503 656.863,228.169 649.5,228.5C 648.238,233.283 646.572,237.95 644.5,242.5C 642.257,243.474 639.924,243.808 637.5,243.5C 643.573,224.612 650.24,205.946 657.5,187.5 Z M 660.5,199.5 C 663.389,206.301 666.056,213.301 668.5,220.5C 663.167,221.833 657.833,221.833 652.5,220.5C 655.175,213.471 657.842,206.471 660.5,199.5 Z"/></g>
<g><path style="opacity:0.807" fill="#fefffe" d="M 686.5,187.5 C 689.572,187.183 692.572,187.516 695.5,188.5C 699.084,194.669 702.917,200.669 707,206.5C 710.3,200.37 713.8,194.37 717.5,188.5C 720.5,187.167 723.5,187.167 726.5,188.5C 721.363,196.802 716.03,204.968 710.5,213C 716.626,222.75 722.626,232.583 728.5,242.5C 725.5,243.833 722.5,243.833 719.5,242.5C 715.08,235.329 710.914,227.996 707,220.5C 702.163,227.504 697.829,234.837 694,242.5C 691.281,243.444 688.448,243.777 685.5,243.5C 685.491,241.692 685.991,240.025 687,238.5C 692.354,230.457 697.188,222.123 701.5,213.5C 696.482,204.822 691.482,196.156 686.5,187.5 Z"/></g>
<g><path style="opacity:0.883" fill="#fefffe" d="M 733.5,187.5 C 735.833,187.5 738.167,187.5 740.5,187.5C 740.5,206.167 740.5,224.833 740.5,243.5C 738.167,243.5 735.833,243.5 733.5,243.5C 733.5,224.833 733.5,206.167 733.5,187.5 Z"/></g>
<g><path style="opacity:0.584" fill="#fefffe" d="M 381.5,188.5 C 385.782,189.32 390.115,189.32 394.5,188.5C 394.5,189.5 394.5,190.5 394.5,191.5C 390.167,191.5 385.833,191.5 381.5,191.5C 381.5,190.5 381.5,189.5 381.5,188.5 Z"/></g>
<g><path style="opacity:0.54" fill="#fefffe" d="M 391.5,194.5 C 392.5,194.5 393.5,194.5 394.5,194.5C 394.5,195.5 394.5,196.5 394.5,197.5C 390.19,198.08 385.857,198.414 381.5,198.5C 381.5,197.5 381.5,196.5 381.5,195.5C 385.042,195.813 388.375,195.479 391.5,194.5 Z"/></g>
<g><path style="opacity:0.533" fill="#fefffe" d="M 392.5,199.5 C 395.125,200.458 395.125,201.624 392.5,203C 388.914,204.108 385.247,204.608 381.5,204.5C 381.5,203.5 381.5,202.5 381.5,201.5C 385.489,201.884 389.155,201.217 392.5,199.5 Z"/></g>
<g><path style="opacity:0.518" fill="#fefffe" d="M 381.5,207.5 C 385.833,207.5 390.167,207.5 394.5,207.5C 394.5,208.5 394.5,209.5 394.5,210.5C 390.486,210.666 386.486,210.499 382.5,210C 381.748,209.329 381.414,208.496 381.5,207.5 Z"/></g>
<g><path style="opacity:0.531" fill="#fefffe" d="M 381.5,213.5 C 385.518,214.671 389.518,214.671 393.5,213.5C 393.833,214 394.167,214.5 394.5,215C 393.391,216.861 391.725,217.695 389.5,217.5C 386.86,216.905 384.193,216.572 381.5,216.5C 381.5,215.5 381.5,214.5 381.5,213.5 Z"/></g>
<g><path style="opacity:0.665" fill="#fefffe" d="M 381.5,219.5 C 385.851,219.969 390.184,220.636 394.5,221.5C 393.372,222.262 392.205,222.929 391,223.5C 387.943,222.549 384.777,222.216 381.5,222.5C 381.5,221.5 381.5,220.5 381.5,219.5 Z"/></g>
<g><path style="opacity:0.584" fill="#fefffe" d="M 381.5,225.5 C 392.554,226.664 395.22,231.831 389.5,241C 379.538,242.798 379.205,241.798 388.5,238C 391.07,235.085 390.737,232.419 387.5,230C 385.655,228.872 383.655,228.372 381.5,228.5C 381.5,227.5 381.5,226.5 381.5,225.5 Z"/></g>
<g><path style="opacity:0.539" fill="#fefffe" d="M 381.5,230.5 C 384.712,230.106 387.046,231.272 388.5,234C 387.431,236.65 385.431,238.15 382.5,238.5C 382.167,238 381.833,237.5 381.5,237C 382.444,235.523 383.777,234.523 385.5,234C 384.207,233.51 382.873,233.343 381.5,233.5C 381.5,232.5 381.5,231.5 381.5,230.5 Z"/></g>
<g><path style="opacity:0.835" fill="#fefffe" d="M 337.5,237.5 C 340.898,237.18 344.232,237.513 347.5,238.5C 343.959,240.541 340.293,242.374 336.5,244C 331.833,244.333 327.167,244.667 322.5,245C 318.652,247.668 314.485,248.168 310,246.5C 308.291,247.57 306.791,248.903 305.5,250.5C 303.602,249.266 301.935,249.599 300.5,251.5C 299.808,250.975 299.308,250.308 299,249.5C 298.626,250.416 298.126,251.25 297.5,252C 295.567,252.251 293.734,252.751 292,253.5C 291.311,252.643 290.478,251.977 289.5,251.5C 287.772,253.226 285.772,254.559 283.5,255.5C 282.833,254.833 282.167,254.167 281.5,253.5C 279.449,253.522 277.283,254.189 275,255.5C 272.787,254.261 270.787,254.594 269,256.5C 267.699,256.04 266.366,255.706 265,255.5C 258.491,257.381 251.991,259.381 245.5,261.5C 244.749,260.624 244.249,259.624 244,258.5C 241.92,260.123 239.754,261.623 237.5,263C 232.738,263.345 228.071,264.178 223.5,265.5C 215.401,268.901 207.235,270.901 199,271.5C 192.567,273.812 186.067,275.812 179.5,277.5C 178.353,277.818 177.519,278.484 177,279.5C 172.936,278.618 169.103,279.451 165.5,282C 159.537,283.209 153.537,284.209 147.5,285C 145.833,286 144.167,287 142.5,288C 137.928,288.463 133.428,289.296 129,290.5C 127.668,288.064 126.501,288.064 125.5,290.5C 121.905,291.061 118.572,292.228 115.5,294C 113.782,294.346 112.115,294.846 110.5,295.5C 109.914,295.291 109.414,294.957 109,294.5C 106.381,297.889 102.881,299.389 98.5,299C 93.9975,301.39 89.3308,303.39 84.5,305C 75.7343,306.953 67.0677,309.287 58.5,312C 55.8333,312.667 53.1667,312.667 50.5,312C 49.6198,310.644 49.2865,309.144 49.5,307.5C 64.6515,302.838 79.6515,297.671 94.5,292C 97.5,291.667 100.5,291.333 103.5,291C 118.147,284.17 133.481,279.503 149.5,277C 150.716,275.26 152.382,274.26 154.5,274C 172.264,271.014 189.597,266.514 206.5,260.5C 207.833,261.167 209.167,261.833 210.5,262.5C 220.068,260.142 229.401,257.308 238.5,254C 261.622,251.304 284.288,246.804 306.5,240.5C 314.077,241.284 321.577,240.617 329,238.5C 330.667,238.833 332.333,239.167 334,239.5C 335.699,239.613 336.866,238.947 337.5,237.5 Z"/></g>
</svg>
